<?xml version="1.0" encoding="UTF-8"?>
<svg width="30" height="30" fill="none" version="1.1" viewBox="0 0 30 30" xmlns="http://www.w3.org/2000/svg">
 <g clip-path="url(#clip0_125_891)">
  <path d="m14.98 0.072266c-8.2835 0-15 6.7145-15 14.998 0 8.2836 6.7165 14.998 15 14.998 8.2836 0 14.998-6.7145 14.998-14.998 0-8.2835-6.7145-14.998-14.998-14.998zm-0.029297 4.8984a1 1 0 0 1 0.13086 0.0078125 1 1 0 0 1 0.12891 0.025391 1 1 0 0 1 0.12305 0.042969 1 1 0 0 1 0.11719 0.058594 1 1 0 0 1 0.10938 0.072266 1 1 0 0 1 0.097656 0.085938 1 1 0 0 1 0.085938 0.097656 1 1 0 0 1 0.072265 0.10938 1 1 0 0 1 0.058594 0.11719 1 1 0 0 1 0.042969 0.12305 1 1 0 0 1 0.02539 0.12891 1 1 0 0 1 0.007813 0.13086v1.7344c0.084637 0.019868 0.16844 0.042188 0.25195 0.066406s0.16589 0.049499 0.24805 0.078125c0.082155 0.028626 0.16359 0.060661 0.24414 0.09375 0.080548 0.033089 0.16154 0.067859 0.24024 0.10547 0.078695 0.03761 0.15582 0.076954 0.23242 0.11914 0.076599 0.042186 0.1523 0.087946 0.22656 0.13477 0.074258 0.04682 0.14708 0.094975 0.21875 0.14648 0.071673 0.05151 0.1421 0.10585 0.21094 0.16211 0.10157 0.082999 0.19929 0.17115 0.29297 0.26562 0.093676 0.094479 0.18316 0.19562 0.26758 0.30078 0.084412 0.10516 0.1645 0.21504 0.23828 0.33008 0.036888 0.05752 0.071497 0.11594 0.10547 0.17578 0.033971 0.05984 0.066773 0.12153 0.097656 0.18359s0.060267 0.12527 0.08789 0.18945c0.027624 0.064181 0.053934 0.12911 0.078126 0.19531 0.024191 0.066201 0.045817 0.13305 0.066406 0.20117s0.039826 0.13709 0.05664 0.20703c0.016815 0.069943 0.032054 0.14123 0.044922 0.21289s0.0225 0.14351 0.03125 0.2168c0.008751 0.073283 0.017024 0.14785 0.021485 0.22266s0.005859 0.15034 0.005859 0.22656a1 1 0 0 1-0.076172 0.38281 1 1 0 0 1-0.2168 0.32422 1 1 0 0 1-0.32422 0.2168 1 1 0 0 1-0.38281 0.076171 1 1 0 0 1-0.38281-0.076171 1 1 0 0 1-0.32422-0.2168 1 1 0 0 1-0.2168-0.32422 1 1 0 0 1-0.076172-0.38281c0-0.078226-0.004337-0.15284-0.011719-0.22461s-0.018672-0.14114-0.033203-0.20703c-0.01453-0.06589-0.031288-0.12885-0.052734-0.18945-0.021446-0.0606-0.046091-0.11793-0.074219-0.17383s-0.061126-0.11034-0.095703-0.16211c-0.034578-0.051773-0.070535-0.10215-0.11133-0.15039-0.040794-0.048239-0.086036-0.093384-0.13281-0.13867-0.046776-0.045288-0.095911-0.08989-0.14844-0.13281s-0.10748-0.084-0.16602-0.12305c-0.058534-0.039047-0.11988-0.076475-0.18359-0.11133-0.063718-0.034852-0.13114-0.067317-0.19922-0.097656s-0.13737-0.058476-0.20898-0.083984c-0.071615-0.025508-0.14442-0.048002-0.21875-0.068359-0.074327-0.020358-0.15035-0.037846-0.22656-0.052734-0.076215-0.014889-0.15319-0.028008-0.23047-0.037109s-0.1549-0.014583-0.23242-0.017578c-0.077518-0.0029948-0.15429-0.0030488-0.23047 0-0.076181 0.0030488-0.15236 0.0087135-0.22656 0.017578s-0.14718 0.020704-0.21875 0.035156c-0.07157 0.014453-0.14069 0.032921-0.20898 0.052734-0.068293 0.019813-0.13485 0.041461-0.19922 0.066406-0.064371 0.024946-0.1277 0.052181-0.1875 0.082031-0.059801 0.02985-0.11729 0.063129-0.17188 0.097656-0.054585 0.034528-0.10558 0.070398-0.1543 0.10938-0.048722 0.038977-0.096196 0.080022-0.14062 0.12305s-0.085378 0.088555-0.125 0.13672c-0.039622 0.048164-0.077026 0.097953-0.11133 0.15234-0.034303 0.054392-0.065281 0.11212-0.09375 0.17383-0.028469 0.06171-0.05405 0.12715-0.076172 0.19727s-0.041379 0.14499-0.056641 0.22461c-0.015261 0.079615-0.027268 0.16566-0.035156 0.25586-0.007888 0.090202-0.011719 0.18523-0.011719 0.28711 0 0.10167 0.004411 0.19661 0.011719 0.28516 0.007308 0.088546 0.016711 0.17078 0.03125 0.24805 0.014539 0.077267 0.032994 0.14896 0.054688 0.2168 0.021693 0.067837 0.047401 0.13115 0.076171 0.19141 0.028771 0.060256 0.061887 0.11735 0.097657 0.17188 0.035769 0.054523 0.074495 0.10756 0.11719 0.1582 0.042692 0.05064 0.089134 0.099833 0.13867 0.14844s0.1019 0.096113 0.1582 0.14453c0.056306 0.048419 0.11704 0.095882 0.18164 0.14258 0.0646 0.046697 0.13292 0.093476 0.20508 0.13867 0.072156 0.045197 0.14759 0.088894 0.22656 0.13281s0.16104 0.087995 0.24609 0.13086c0.17011 0.085728 0.35296 0.16911 0.54297 0.25195s0.38779 0.16436 0.5918 0.24609 0.4138 0.16278 0.625 0.24805c0.2112 0.085267 0.42426 0.17405 0.63672 0.27148 0.10623 0.048717 0.21098 0.10092 0.31641 0.1543 0.10543 0.053378 0.21057 0.10885 0.31445 0.16797 0.10388 0.059117 0.20699 0.12156 0.30859 0.1875 0.1016 0.065937 0.20221 0.13515 0.30078 0.20898 0.098574 0.073836 0.1959 0.1541 0.28906 0.24024 0.093161 0.086139 0.1818 0.17761 0.26758 0.27539 0.085774 0.097776 0.16773 0.2018 0.24414 0.31055 0.038207 0.054373 0.075832 0.11098 0.11133 0.16797s0.069024 0.1143 0.10156 0.17383 0.062461 0.11967 0.091797 0.18164c0.029335 0.061974 0.058099 0.12511 0.083984 0.18945 0.025885 0.064341 0.050078 0.13064 0.072266 0.19726 0.022187 0.066626 0.042303 0.1343 0.060547 0.20312 0.018243 0.068826 0.034775 0.13804 0.048828 0.20898 0.014052 0.070942 0.025541 0.14382 0.035156 0.2168 0.009615 0.072976 0.016553 0.14578 0.021484 0.2207 0.004931 0.074926 0.007813 0.15172 0.007813 0.22852 0 0.14093-0.005779 0.27878-0.017578 0.41406-0.0118 0.13529-0.029794 0.26897-0.052735 0.39844-0.022941 0.12947-0.050559 0.25543-0.083984 0.37891s-0.071983 0.24402-0.11523 0.36133c-0.043252 0.11731-0.092111 0.23083-0.14453 0.3418-0.052421 0.11097-0.10899 0.21976-0.16992 0.32422-0.060932 0.10446-0.12653 0.20496-0.19531 0.30274-0.068787 0.097773-0.14081 0.19229-0.2168 0.2832-0.075983 0.090915-0.15576 0.17783-0.23828 0.26172-0.082522 0.083884-0.16746 0.16355-0.25586 0.24023-0.088403 0.076681-0.17981 0.1514-0.27344 0.2207s-0.18892 0.13356-0.28711 0.19531c-0.098195 0.061755-0.19868 0.1198-0.30078 0.17383-0.1021 0.054033-0.20714 0.10425-0.3125 0.15039-0.10536 0.046138-0.21236 0.088884-0.32031 0.12695-0.10795 0.03807-0.21629 0.071735-0.32617 0.10156v1.6719a1 1 0 0 1-0.076172 0.38281 1 1 0 0 1-0.2168 0.32422 1 1 0 0 1-0.32422 0.2168 1 1 0 0 1-0.38281 0.076172 1 1 0 0 1-0.38281-0.076172 1 1 0 0 1-0.32422-0.2168 1 1 0 0 1-0.2168-0.32422 1 1 0 0 1-0.076172-0.38281v-1.5918c-0.087453-0.016335-0.17525-0.034934-0.26172-0.056641-0.086467-0.021706-0.17071-0.047035-0.25586-0.074218-0.085152-0.027183-0.1704-0.057078-0.25391-0.089844-0.083506-0.032766-0.16652-0.067014-0.24805-0.10547-0.081529-0.038454-0.16101-0.080751-0.24024-0.125s-0.15779-0.090475-0.23438-0.14062c-0.076584-0.050149-0.15099-0.104-0.22461-0.16016s-0.14648-0.11547-0.2168-0.17773c-0.052578-0.046559-0.1042-0.094641-0.1543-0.14453-0.050091-0.04989-0.098985-0.10117-0.14648-0.1543-0.047499-0.05313-0.093873-0.10779-0.13867-0.16406-0.0448-0.056275-0.086913-0.1145-0.12891-0.17383-0.041994-0.059329-0.083967-0.11935-0.12305-0.18164-0.039081-0.062289-0.075267-0.12625-0.11133-0.19141s-0.070581-0.13324-0.10352-0.20117c-0.032935-0.06793-0.066001-0.13642-0.095703-0.20703s-0.057622-0.14164-0.083984-0.21484c-0.026363-0.0732-0.049349-0.14891-0.072266-0.22461s-0.045089-0.15237-0.064453-0.23047-0.03703-0.15787-0.052735-0.23828c-0.015704-0.080409-0.029077-0.16152-0.041015-0.24414-0.011939-0.082625-0.023185-0.16525-0.03125-0.25-0.008066-0.084749-0.013492-0.17103-0.017578-0.25781s-0.00586-0.17495-0.00586-0.26367a1 1 0 0 1 0.076172-0.38281 1 1 0 0 1 0.2168-0.32422 1 1 0 0 1 0.32422-0.2168 1 1 0 0 1 0.38281-0.076172 1 1 0 0 1 0.13086 0.007812 1 1 0 0 1 0.12891 0.025391 1 1 0 0 1 0.12305 0.042969 1 1 0 0 1 0.11719 0.058593 1 1 0 0 1 0.10938 0.072266 1 1 0 0 1 0.097656 0.085938 1 1 0 0 1 0.085938 0.097656 1 1 0 0 1 0.072266 0.10938 1 1 0 0 1 0.058593 0.11719 1 1 0 0 1 0.042969 0.12305 1 1 0 0 1 0.025391 0.12891 1 1 0 0 1 0.007812 0.13086c0 0.11938 0.004802 0.23312 0.013672 0.33984 0.00887 0.10672 0.022073 0.20579 0.039063 0.30078 0.016989 0.094993 0.038142 0.18533 0.0625 0.26953 0.024357 0.084198 0.051056 0.16199 0.082031 0.23633 0.030974 0.074336 0.064722 0.14553 0.10156 0.21094 0.036841 0.065405 0.077186 0.12618 0.11914 0.18359s0.086494 0.10981 0.13281 0.16016c0.046319 0.050345 0.094601 0.098364 0.14453 0.14258 0.04993 0.044213 0.10336 0.086364 0.1582 0.125s0.11068 0.074477 0.16992 0.10742c0.059242 0.032944 0.12045 0.062705 0.18359 0.089843 0.063141 0.027139 0.12878 0.051047 0.19531 0.072266s0.1337 0.039502 0.20312 0.054688c0.069421 0.015185 0.14109 0.028072 0.21289 0.037109 0.071802 0.009037 0.14507 0.014803 0.21875 0.017578 0.073678 0.002775 0.14761 0.001648 0.22266-0.001953 0.075049-0.003601 0.15018-0.010511 0.22461-0.019531 0.074433-0.009021 0.14743-0.020622 0.2207-0.035157 0.073273-0.014534 0.14718-0.030637 0.21875-0.050781 0.07157-0.020143 0.14161-0.044465 0.21094-0.070312s0.13659-0.054293 0.20312-0.085938c0.066534-0.031645 0.13211-0.065977 0.19531-0.10352 0.063202-0.037539 0.12427-0.077568 0.18359-0.12109s0.11697-0.091017 0.17188-0.14062c0.054907-0.049609 0.10826-0.10242 0.1582-0.1582 0.049945-0.055786 0.096186-0.11372 0.14062-0.17578 0.04444-0.062057 0.086609-0.12689 0.125-0.19531 0.038391-0.068424 0.07367-0.13996 0.10547-0.21484s0.05932-0.15293 0.083984-0.23438 0.045514-0.16777 0.0625-0.25586 0.030298-0.1786 0.039063-0.27344c0.008764-0.094836 0.013672-0.19324 0.013672-0.29492 0-0.079731-0.001935-0.15253-0.007813-0.2207s-0.015249-0.13088-0.027344-0.18945c-0.012094-0.058576-0.028224-0.11311-0.046874-0.16406-0.018651-0.05095-0.040862-0.099241-0.066407-0.14453-0.025545-0.04529-0.053159-0.087307-0.085937-0.12891-0.032779-0.041599-0.070978-0.083172-0.11133-0.12305-0.040351-0.039874-0.084551-0.079022-0.13281-0.11914-0.048261-0.040118-0.099739-0.080719-0.15625-0.12305-0.056511-0.042329-0.118-0.083515-0.18359-0.125s-0.13518-0.084131-0.20898-0.125c-0.1476-0.081739-0.31111-0.16154-0.48633-0.24219-0.17522-0.080649-0.36273-0.1608-0.55859-0.24219s-0.39982-0.16409-0.60938-0.24805-0.42552-0.16943-0.64258-0.26172c-0.10853-0.046145-0.21708-0.094658-0.32617-0.14453s-0.21739-0.10155-0.32617-0.15625-0.21663-0.11126-0.32422-0.17188c-0.10759-0.060614-0.21478-0.12573-0.32031-0.19336-0.10553-0.067628-0.20991-0.13911-0.3125-0.21484-0.10259-0.075738-0.20396-0.15529-0.30273-0.24024-0.09878-0.084942-0.19533-0.17644-0.28711-0.27344s-0.17847-0.20008-0.26172-0.30859c-0.041624-0.054255-0.081887-0.10899-0.12109-0.16602-0.039206-0.057029-0.078638-0.11605-0.11524-0.17578-0.036596-0.059735-0.071673-0.12122-0.10547-0.18359-0.033796-0.062373-0.064899-0.12451-0.095704-0.18945-0.030804-0.06494-0.060268-0.13178-0.08789-0.19922-0.027622-0.067441-0.053876-0.13716-0.078125-0.20703s-0.047675-0.14066-0.068359-0.21289c-0.020685-0.072235-0.037758-0.14422-0.054688-0.21875s-0.031938-0.15176-0.044922-0.22852c-0.012983-0.076754-0.024356-0.15351-0.033203-0.23242-0.008847-0.078911-0.016966-0.15923-0.021484-0.24023-0.004519-0.081-0.00586-0.16307-0.00586-0.24609 0-0.082917 0.001557-0.16491 0.00586-0.24609 0.004302-0.081187 0.01106-0.16089 0.019531-0.24023s0.018746-0.15893 0.03125-0.23633 0.026566-0.15317 0.042969-0.22852 0.036473-0.14948 0.05664-0.22266 0.040657-0.1459 0.064453-0.2168c0.023797-0.070901 0.050834-0.14047 0.078125-0.20898 0.027292-0.068517 0.055286-0.13515 0.085938-0.20117s0.063779-0.13189 0.097656-0.19531c0.033877-0.063421 0.068501-0.12484 0.10547-0.18555s0.07531-0.11985 0.11523-0.17773c0.039925-0.057888 0.082254-0.11496 0.125-0.16992 0.042746-0.054959 0.085427-0.10824 0.13086-0.16016s0.092639-0.10162 0.14062-0.15039c0.047985-0.048772 0.098034-0.097063 0.14844-0.14258 0.050403-0.045515 0.10161-0.08871 0.1543-0.13086 0.070424-0.056338 0.14155-0.10963 0.21484-0.16016s0.14873-0.0977 0.22461-0.14258 0.15231-0.087561 0.23047-0.12695 0.15814-0.075305 0.23828-0.10938c0.080138-0.03407 0.16036-0.066792 0.24219-0.095703 0.081823-0.028911 0.16483-0.05421 0.24805-0.078125 0.083213-0.023915 0.16765-0.045371 0.25195-0.064453 0.084304-0.019082 0.16881-0.036369 0.25391-0.050781v-1.668a1 1 0 0 1 0.076172-0.38281 1 1 0 0 1 0.2168-0.32422 1 1 0 0 1 0.32422-0.2168 1 1 0 0 1 0.38281-0.076172z" fill="#000"/>
 </g>
 <defs>
  <clipPath id="clip0_125_891">
   <rect width="30" height="30" fill="#fff"/>
  </clipPath>
 </defs>
</svg>
