<?xml version="1.0" encoding="UTF-8"?>
<svg width="30" height="31" fill="none" version="1.1" viewBox="0 0 30 31" xmlns="http://www.w3.org/2000/svg">
 <path d="m14.898 0c-1.0028 0-2.0055 0.39208-2.7622 1.1763l-11.493 11.915c-1.3996 1.451-0.36511 3.8595 1.6589 3.8595h2.2145v9.4848c0 2.0884 1.68 3.7795 3.749 3.7795h4.0295v-9.1487c0-1.2536 1.008-2.2672 2.2488-2.2672h0.7064c1.2435 0 2.2489 1.0163 2.2489 2.2672v9.1487h4.0295c2.0716 0 3.749-1.6937 3.749-3.7795v-9.4848h2.2118c2.0214 0 3.0558-2.4085 1.6589-3.8595l-11.488-11.915c-0.7567-0.78418-1.7594-1.1763-2.7621-1.1763z" fill="#fff"/>
</svg>
