<svg width="30" height="31" viewBox="0 0 30 31" fill="none" xmlns="http://www.w3.org/2000/svg">
<path d="M14.8985 1.60035C15.5149 1.60035 16.0917 1.84573 16.5229 2.29116L28.016 14.2058C28.2806 14.4805 28.2171 14.7712 28.1536 14.9206C28.1007 15.0486 27.9287 15.3473 27.4975 15.3473H23.6982V26.4324C23.6982 27.6353 22.7272 28.6115 21.5366 28.6115H19.0946V21.0632C19.0946 18.9294 17.3722 17.1957 15.2583 17.1957H14.5519C12.4353 17.1957 10.7156 18.9321 10.7156 21.0632V28.6115H8.27354C7.08031 28.6115 6.11197 27.6327 6.11197 26.4324V15.35H2.30211C1.87086 15.35 1.69889 15.0513 1.64597 14.9232C1.58247 14.7739 1.51898 14.4831 1.78355 14.2084L13.274 2.29116C13.7052 1.84573 14.282 1.60035 14.8985 1.60035ZM14.8985 0C13.8957 0 12.893 0.392085 12.1363 1.17626L0.643238 13.0908C-0.756356 14.5418 0.278126 16.9503 2.30211 16.9503H4.5166V26.4351C4.5166 28.5235 6.19664 30.2146 8.2656 30.2146H12.2951V21.0659C12.2951 19.8123 13.3031 18.7987 14.5439 18.7987H15.2503C16.4938 18.7987 17.4992 19.815 17.4992 21.0659V30.2146H21.5287C23.6003 30.2146 25.2777 28.5209 25.2777 26.4351V16.9503H27.4895C29.5109 16.9503 30.5453 14.5418 29.1484 13.0908L17.6606 1.17626C16.9039 0.392085 15.9012 0 14.8985 0Z" fill="#000"/>
</svg>
