<svg width="30" height="30" viewBox="0 0 30 30" fill="#DE1E1E" xmlns="http://www.w3.org/2000/svg">
<g clip-path="url(#clip0_124_45)">
<path d="M15.0145 2.57166C22.4094 2.57166 28.4258 7.38426 28.4258 13.2975C28.4258 19.2107 22.4094 24.0259 15.0145 24.0259C13.6837 24.0259 12.3741 23.8698 11.1147 23.5629L10.5459 23.4254L10.0247 23.6873L4.48981 26.4706L5.97936 22.6634L6.40268 21.5813L5.49783 20.8511C2.98438 18.8218 1.60066 16.1416 1.60066 13.3001C1.60331 7.38161 7.61971 2.57166 15.0145 2.57166ZM15.0145 0.984222C6.73075 0.984222 0.0158691 6.49794 0.0158691 13.2975C0.0158691 16.7369 1.73295 19.8483 4.50304 22.084L2.37851 27.5157C2.12717 28.1559 2.62986 28.7724 3.23044 28.7724C3.36537 28.7724 3.50559 28.7406 3.64582 28.6719L10.739 25.1054C12.0937 25.4361 13.5276 25.6134 15.0145 25.6134C23.2983 25.6134 30.0132 20.0997 30.0132 13.2975C30.0132 6.49529 23.2983 0.984222 15.0145 0.984222V0.984222Z" fill="#000"/>
<path d="M8.24159 11.2655C7.07217 11.2655 6.125 12.2127 6.125 13.3821C6.125 14.5515 7.07217 15.4987 8.24159 15.4987C9.411 15.4987 10.3582 14.5515 10.3582 13.3821C10.3582 12.2127 9.411 11.2655 8.24159 11.2655Z" fill="currentColor"/>
<path d="M14.713 11.2655C13.5436 11.2655 12.5964 12.2127 12.5964 13.3821C12.5964 14.5515 13.5436 15.4987 14.713 15.4987C15.8824 15.4987 16.8296 14.5515 16.8296 13.3821C16.8296 12.2127 15.8824 11.2655 14.713 11.2655Z" fill="currentColor"/>
<path d="M21.4279 11.2655C20.2585 11.2655 19.3113 12.2127 19.3113 13.3821C19.3113 14.5515 20.2585 15.4987 21.4279 15.4987C22.5973 15.4987 23.5445 14.5515 23.5445 13.3821C23.5445 12.2127 22.5973 11.2655 21.4279 11.2655Z" fill="currentColor"/>
</g>
<defs>
<clipPath id="clip0_124_45">
<rect width="30" height="30" fill="currentColor"/>
</clipPath>
</defs>
</svg>
