<?xml version="1.0" encoding="UTF-8"?>
<svg width="30" height="30" fill="none" version="1.1" viewBox="0 0 30 30" xmlns="http://www.w3.org/2000/svg">
 <g clip-path="url(#clip0_124_40)">
  <path d="m15.014 0.98438c-8.2837 0-14.998 5.513-14.998 12.312 0 3.4394 1.7182 6.5514 4.4883 8.7871l-2.125 5.4316c-0.3069 0.7831 0.51619 1.5346 1.2676 1.1562l7.0918-3.5664c1.3547 0.3307 2.7885 0.50781 4.2754 0.50781 8.2838 0 15-5.5142 15-12.316 0-6.7995-6.7162-12.312-15-12.312zm-6.7715 10.281c0.03653 0 0.071346 1.24e-4 0.10742 0.001953 0.036075 0.001829 0.071845 0.006152 0.10742 0.009766 0.035577 0.003613 0.072388 0.006367 0.10742 0.011718 0.035034 0.005354 0.069069 0.012483 0.10352 0.019532 0.034446 0.007049 0.069701 0.014737 0.10352 0.023437 0.033814 0.008701 0.066471 0.018989 0.099609 0.029297 0.033138 0.010308 0.065238 0.021333 0.097656 0.033203 0.032418 0.011871 0.066003 0.023721 0.097656 0.03711 0.031653 0.013388 0.062906 0.028105 0.09375 0.042968 0.030844 0.014863 0.059853 0.030583 0.089844 0.046875 0.029991 0.016293 0.060751 0.033104 0.089844 0.050782 0.029093 0.017678 0.057787 0.035668 0.085937 0.054687 0.028151 0.019019 0.054867 0.038278 0.082031 0.058594s0.053944 0.040932 0.080078 0.0625c0.026134 0.021568 0.051113 0.04363 0.076172 0.066406s0.050279 0.046373 0.074219 0.070313c0.02394 0.023939 0.047537 0.049159 0.070313 0.074218 0.022776 0.02506 0.044838 0.050038 0.066406 0.076172s0.042185 0.052914 0.0625 0.080078c0.020315 0.027165 0.039575 0.055834 0.058594 0.083985 0.019018 0.028151 0.038963 0.056844 0.05664 0.085937 0.017678 0.029093 0.034489 0.0579 0.050782 0.087891 0.016292 0.029991 0.032012 0.060953 0.046875 0.091797 0.014862 0.030844 0.027627 0.062097 0.041015 0.09375 0.013389 0.031653 0.027193 0.063285 0.039063 0.095703 0.01187 0.032417 0.022896 0.064518 0.033203 0.097656s0.018643 0.067749 0.027344 0.10156c0.0087 0.033813 0.016388 0.067117 0.023437 0.10156s0.014178 0.070436 0.019531 0.10547c0.005354 0.035032 0.010059 0.069893 0.013672 0.10547 0.003613 0.035575 0.005984 0.071348 0.007813 0.10742 0.001828 0.036071 0.001953 0.072848 0.001953 0.10937 0 0.036532-1.25e-4 0.071346-0.001953 0.10742-0.001829 0.036077-0.0042 0.071845-0.007813 0.10742-0.003613 0.035578-0.008318 0.072388-0.013672 0.10742-0.005353 0.035035-0.012482 0.069069-0.019531 0.10352s-0.014737 0.067747-0.023437 0.10156c-0.008701 0.033815-0.017037 0.068424-0.027344 0.10156s-0.021333 0.065238-0.033203 0.097656-0.025674 0.06405-0.039063 0.095703c-0.013388 0.031654-0.026153 0.062906-0.041015 0.09375-0.014863 0.030844-0.030583 0.061806-0.046875 0.091797-0.016293 0.029991-0.033104 0.060751-0.050782 0.089844-0.017677 0.029093-0.037622 0.057786-0.05664 0.085937-0.019019 0.028151-0.038278 0.054867-0.058594 0.082032-0.020315 0.027162-0.040932 0.053944-0.0625 0.080078-0.021568 0.026133-0.043631 0.051113-0.066406 0.076172-0.022776 0.025056-0.046373 0.050279-0.070313 0.074218-0.023939 0.023939-0.04916 0.047537-0.074219 0.070313-0.025059 0.022775-0.050038 0.044839-0.076172 0.066406-0.026134 0.021567-0.052913 0.042185-0.080078 0.0625s-0.05388 0.039576-0.082031 0.058594c-0.028151 0.019018-0.056844 0.03701-0.085937 0.054687-0.029093 0.017677-0.059853 0.036443-0.089844 0.052735-0.029991 0.016291-0.059 0.030062-0.089844 0.044921-0.030844 0.014862-0.062097 0.029581-0.09375 0.042969-0.031653 0.013388-0.065238 0.027193-0.097656 0.039063-0.032418 0.011869-0.064518 0.022896-0.097656 0.033203-0.033139 0.010307-0.065795 0.018644-0.099609 0.027344-0.033815 0.008699-0.06907 0.016389-0.10352 0.023437-0.034446 0.007049-0.068482 0.014178-0.10352 0.019531-0.035034 0.005353-0.071845 0.010059-0.10742 0.013672-0.035577 0.003613-0.071346 0.005984-0.10742 0.007813-0.036076 0.001828-0.070892 0.001953-0.10742 0.001953s-0.0733-1.25e-4 -0.10938-0.001953c-0.036076-0.001829-0.071845-0.0042-0.10742-0.007813-0.035576-0.003613-0.070435-0.008319-0.10547-0.013672-0.035034-0.005353-0.071023-0.012482-0.10547-0.019531-0.034446-0.007048-0.067748-0.014738-0.10156-0.023437-0.033814-0.0087-0.068424-0.017037-0.10156-0.027344-0.033138-0.010307-0.065238-0.021334-0.097656-0.033203-0.032418-0.01187-0.06405-0.025675-0.095703-0.039063-0.031653-0.013388-0.062906-0.028107-0.09375-0.042969-0.030844-0.014859-0.061806-0.02863-0.091797-0.044921-0.029991-0.016292-0.058798-0.035058-0.087891-0.052735-0.029093-0.017677-0.057787-0.035669-0.085937-0.054687-0.028151-0.019018-0.05682-0.038279-0.083984-0.058594-0.027164-0.020315-0.053944-0.040933-0.080078-0.0625-0.026133-0.021567-0.051113-0.043631-0.076172-0.066406-0.025059-0.022776-0.05028-0.046374-0.074219-0.070313s-0.045584-0.049162-0.068359-0.074218c-0.022775-0.025059-0.046792-0.050039-0.068359-0.076172-0.021567-0.026134-0.042185-0.052916-0.0625-0.080078-0.020315-0.027165-0.039576-0.053881-0.058594-0.082032s-0.03701-0.056844-0.054688-0.085937c-0.017677-0.029093-0.034489-0.059853-0.050781-0.089844s-0.032013-0.060953-0.046875-0.091797-0.029581-0.062096-0.042969-0.09375c-0.013388-0.031653-0.02524-0.063285-0.037109-0.095703-0.01187-0.032418-0.022896-0.064517-0.033203-0.097656s-0.020597-0.067748-0.029297-0.10156c-0.0086998-0.033815-0.016389-0.067115-0.023437-0.10156-0.0070488-0.034447-0.014178-0.068481-0.019531-0.10352-0.005353-0.035034-0.0081059-0.071844-0.011719-0.10742-0.0036131-0.035577-0.007937-0.071345-0.0097657-0.10742-0.0018286-0.036076-0.0019531-0.07089-0.0019531-0.10742 0-0.036526 1.245e-4 -0.073303 0.0019531-0.10937 0.0018287-0.036074 0.0061526-0.071847 0.0097657-0.10742 0.0036128-0.035576 0.0063657-0.070437 0.011719-0.10547 0.005353-0.035033 0.012482-0.071024 0.019531-0.10547 0.0070485-0.034445 0.014738-0.067749 0.023437-0.10156 0.0087001-0.033814 0.01899-0.068425 0.029297-0.10156s0.021334-0.065239 0.033203-0.097656c0.01187-0.032418 0.023721-0.06405 0.037109-0.095703 0.013388-0.031653 0.028107-0.062906 0.042969-0.09375s0.030583-0.061806 0.046875-0.091797 0.033104-0.058798 0.050781-0.087891c0.017677-0.029093 0.035669-0.057786 0.054688-0.085937s0.038279-0.05682 0.058594-0.083985c0.020315-0.027164 0.040933-0.053944 0.0625-0.080078s0.045584-0.051112 0.068359-0.076172c0.022776-0.025059 0.04442-0.050279 0.068359-0.074218 0.023939-0.02394 0.04916-0.047537 0.074219-0.070313 0.025058-0.022776 0.050038-0.044838 0.076172-0.066406 0.026134-0.021568 0.052914-0.042184 0.080078-0.0625 0.027164-0.020316 0.055834-0.039575 0.083984-0.058594 0.028151-0.019019 0.056845-0.037009 0.085937-0.054687 0.029093-0.017678 0.0579-0.034489 0.087891-0.050782 0.02999-0.016292 0.060953-0.032012 0.091797-0.046875 0.030844-0.014863 0.062097-0.02958 0.09375-0.042968 0.031653-0.013389 0.063285-0.025239 0.095703-0.03711 0.032418-0.01187 0.064518-0.022895 0.097656-0.033203 0.033138-0.010308 0.067748-0.020596 0.10156-0.029297 0.033814-0.0087 0.067116-0.016388 0.10156-0.023437 0.034446-0.007049 0.070435-0.014178 0.10547-0.019532 0.035033-0.005351 0.069892-0.008105 0.10547-0.011718 0.035577-0.003614 0.071346-0.007937 0.10742-0.009766s0.072845-0.001953 0.10938-0.001953zm6.4707 0c0.036531 0 0.073298 1.24e-4 0.10938 0.001953 0.036076 0.001829 0.071844 0.006152 0.10742 0.009766 0.035576 0.003613 0.070434 0.006366 0.10547 0.011718 0.035035 0.005354 0.069069 0.012483 0.10352 0.019532s0.0697 0.014737 0.10352 0.023437c0.033814 0.008701 0.06647 0.018989 0.099609 0.029297s0.067191 0.021333 0.099609 0.033203c0.032419 0.011871 0.06405 0.023721 0.095703 0.03711 0.031654 0.013388 0.062906 0.028105 0.09375 0.042968 0.030845 0.014863 0.061806 0.030583 0.091797 0.046875 0.029991 0.016293 0.058798 0.033104 0.087891 0.050782s0.057787 0.035668 0.085937 0.054687c0.028151 0.019019 0.054867 0.038278 0.082032 0.058594 0.027164 0.020316 0.053944 0.040932 0.080078 0.0625 0.026133 0.021568 0.053066 0.04363 0.078125 0.066406 0.025058 0.022776 0.048326 0.046373 0.072265 0.070313 0.023939 0.023939 0.047538 0.049159 0.070313 0.074218 0.022775 0.02506 0.044839 0.050038 0.066406 0.076172s0.042185 0.052914 0.0625 0.080078c0.020315 0.027165 0.041529 0.055834 0.060547 0.083985s0.037011 0.056844 0.054688 0.085937c0.017675 0.029093 0.034489 0.0579 0.050781 0.087891 0.016291 0.029991 0.032013 0.060953 0.046875 0.091797s0.029582 0.062097 0.042968 0.09375c0.013388 0.031653 0.02524 0.063285 0.03711 0.095703 0.011869 0.032417 0.022896 0.064518 0.033203 0.097656s0.020597 0.067749 0.029297 0.10156c0.0087 0.033813 0.016389 0.067117 0.023437 0.10156 0.007049 0.034445 0.012226 0.070436 0.017579 0.10547 0.005351 0.035032 0.010058 0.069893 0.013671 0.10547 0.003613 0.035575 0.005984 0.071348 0.007813 0.10742 0.001828 0.036072 0.003906 0.072847 0.003906 0.10937 0 0.036532-0.002078 0.071346-0.003906 0.10742-0.001829 0.036077-0.0042 0.071845-0.007813 0.10742-0.003613 0.035578-0.00832 0.072388-0.013671 0.10742-0.005353 0.035035-0.01053 0.069069-0.017579 0.10352-0.007048 0.034447-0.014737 0.067747-0.023437 0.10156s-0.01899 0.068424-0.029297 0.10156-0.021334 0.065238-0.033203 0.097656c-0.01187 0.032418-0.023722 0.06405-0.03711 0.095703-0.013386 0.031654-0.028106 0.062906-0.042968 0.09375s-0.030584 0.061806-0.046875 0.091797c-0.016292 0.029991-0.033106 0.060751-0.050781 0.089844-0.017677 0.029093-0.03567 0.057786-0.054688 0.085937s-0.040232 0.054867-0.060547 0.082032c-0.020315 0.027163-0.040933 0.053944-0.0625 0.080078-0.021567 0.026133-0.043631 0.051113-0.066406 0.076172-0.022775 0.025057-0.046374 0.050279-0.070313 0.074218s-0.047207 0.047537-0.072265 0.070313c-0.025059 0.022775-0.051992 0.044839-0.078125 0.066406-0.026134 0.021567-0.052914 0.042185-0.080078 0.0625-0.027165 0.020315-0.053881 0.039576-0.082032 0.058594-0.02815 0.019018-0.056844 0.03701-0.085937 0.054687s-0.0579 0.036443-0.087891 0.052735c-0.029991 0.016291-0.060952 0.030061-0.091797 0.044921-0.030844 0.014862-0.062096 0.029581-0.09375 0.042969-0.031653 0.013388-0.063284 0.027193-0.095703 0.039063-0.032418 0.011869-0.06647 0.022896-0.099609 0.033203s-0.065795 0.018644-0.099609 0.027344c-0.033816 0.008699-0.069069 0.016389-0.10352 0.023437-0.034447 0.007049-0.068481 0.014178-0.10352 0.019531-0.035034 0.005353-0.069892 0.010059-0.10547 0.013672-0.035578 0.003613-0.071346 0.005984-0.10742 0.007813-0.036077 0.001828-0.072844 0.001953-0.10938 0.001953-0.036528 0-0.073301-1.25e-4 -0.10938-0.001953-0.036074-0.001829-0.071847-0.0042-0.10742-0.007813-0.035576-0.003613-0.070437-0.008319-0.10547-0.013672s-0.06907-0.012482-0.10352-0.019531c-0.034445-0.007048-0.069702-0.014738-0.10352-0.023437-0.033814-0.0087-0.066472-0.017037-0.09961-0.027344-0.033137-0.010307-0.067192-0.021334-0.099609-0.033203-0.032417-0.01187-0.06405-0.025675-0.095703-0.039063s-0.062906-0.028107-0.09375-0.042969c-0.030844-0.01486-0.059853-0.02863-0.089844-0.044921-0.029991-0.016292-0.060751-0.035058-0.089844-0.052735s-0.057786-0.035669-0.085937-0.054687-0.054867-0.038279-0.082031-0.058594c-0.027165-0.020315-0.053945-0.040933-0.080078-0.0625-0.026135-0.021567-0.053066-0.043631-0.078126-0.066406-0.025058-0.022776-0.048325-0.046374-0.072265-0.070313s-0.047536-0.049161-0.070313-0.074218c-0.022776-0.025059-0.044838-0.050039-0.066406-0.076172-0.021568-0.026134-0.042184-0.052915-0.0625-0.080078-0.020316-0.027165-0.041528-0.053881-0.060547-0.082032s-0.037009-0.056844-0.054687-0.085937-0.034489-0.059853-0.050782-0.089844c-0.016291-0.029991-0.032013-0.060953-0.046874-0.091797-0.014863-0.030844-0.027627-0.062096-0.041016-0.09375-0.013389-0.031653-0.027192-0.063285-0.039063-0.095703-0.01187-0.032418-0.022895-0.064517-0.033203-0.097656-0.010307-0.033139-0.020596-0.067748-0.029297-0.10156-0.0087-0.033815-0.016388-0.067115-0.023437-0.10156s-0.012225-0.068481-0.017578-0.10352c-0.005354-0.035034-0.010059-0.071844-0.013672-0.10742-0.003613-0.035577-0.005984-0.071345-0.007813-0.10742-0.001828-0.036076-0.003906-0.07089-0.003906-0.10742 0-0.036527 0.002078-0.073302 0.003906-0.10937 0.001829-0.036074 0.0042-0.071847 0.007813-0.10742 0.003613-0.035576 0.008318-0.070437 0.013672-0.10547 0.005353-0.035033 0.010529-0.071024 0.017578-0.10547s0.014737-0.067749 0.023437-0.10156c0.008701-0.033814 0.01899-0.068425 0.029297-0.10156 0.010308-0.033138 0.021333-0.065239 0.033203-0.097656 0.011871-0.032418 0.025674-0.06405 0.039063-0.095703s0.026153-0.062906 0.041016-0.09375c0.014861-0.030844 0.030583-0.061806 0.046874-0.091797 0.016293-0.029991 0.033104-0.058798 0.050782-0.087891s0.035668-0.057786 0.054687-0.085937 0.040231-0.05682 0.060547-0.083985c0.020316-0.027164 0.040932-0.053944 0.0625-0.080078s0.04363-0.051112 0.066406-0.076172c0.022777-0.025059 0.046373-0.050279 0.070313-0.074218 0.02394-0.02394 0.047207-0.047537 0.072265-0.070313 0.02506-0.022776 0.051991-0.044838 0.078126-0.066406 0.026133-0.021568 0.052913-0.042184 0.080078-0.0625 0.027164-0.020316 0.05388-0.039575 0.082031-0.058594s0.056844-0.037009 0.085937-0.054687 0.059853-0.034489 0.089844-0.050782c0.029991-0.016292 0.059-0.032012 0.089844-0.046875s0.062097-0.02958 0.09375-0.042968c0.031653-0.013389 0.063286-0.025239 0.095703-0.03711 0.032417-0.01187 0.066472-0.022895 0.099609-0.033203 0.033138-0.010308 0.065796-0.020596 0.09961-0.029297 0.033813-0.0087 0.06907-0.016388 0.10352-0.023437 0.034446-0.007049 0.068484-0.014178 0.10352-0.019532 0.035032-0.005352 0.069893-0.008105 0.10547-0.011718 0.035575-0.003614 0.071348-0.007937 0.10742-0.009766s0.072847-0.001953 0.10938-0.001953zm6.7148 0c0.073057 0 0.14565 0.004492 0.2168 0.011719 0.071151 0.007226 0.14009 0.017151 0.20898 0.03125 0.06889 0.014098 0.13685 0.032119 0.20312 0.052734 0.066275 0.020616 0.13201 0.043535 0.19531 0.070313 0.12661 0.053555 0.24677 0.11924 0.35938 0.19531 0.1126 0.076076 0.21674 0.16205 0.3125 0.25781 0.095759 0.095759 0.18369 0.20185 0.25977 0.31445 0.076076 0.1126 0.14176 0.23276 0.19531 0.35938 0.026778 0.063306 0.049697 0.12708 0.070313 0.19336 0.020615 0.066276 0.038636 0.13424 0.052734 0.20312 0.014098 0.068891 0.024024 0.13979 0.03125 0.21094 0.007227 0.07115 0.011719 0.14374 0.011719 0.2168 0 0.073063-0.004492 0.14369-0.011719 0.21484-0.007226 0.071156-0.017152 0.14204-0.03125 0.21094s-0.032119 0.13685-0.052734 0.20312c-0.020616 0.066277-0.043535 0.13005-0.070313 0.19336-0.053555 0.12661-0.11924 0.24872-0.19531 0.36133-0.076077 0.1126-0.16401 0.21674-0.25977 0.3125s-0.1999 0.18174-0.3125 0.25781c-0.1126 0.076072-0.23276 0.14176-0.35938 0.19531-0.063306 0.026776-0.12904 0.051652-0.19531 0.072266-0.066276 0.020614-0.13424 0.036684-0.20312 0.050781-0.068891 0.014097-0.13783 0.025977-0.20898 0.033203-0.07115 0.007226-0.14374 0.009766-0.2168 0.009766-0.073062 0-0.14564-0.00254-0.2168-0.009766-0.071156-0.007226-0.14009-0.019106-0.20898-0.033203s-0.13685-0.030167-0.20312-0.050781-0.132-0.04549-0.19531-0.072266c-0.12661-0.053551-0.24677-0.11924-0.35938-0.19531-0.1126-0.076072-0.21674-0.16206-0.3125-0.25781-0.095757-0.095756-0.18369-0.1999-0.25977-0.3125-0.076072-0.1126-0.13981-0.23471-0.19336-0.36133-0.026776-0.063307-0.051652-0.12708-0.072266-0.19336-0.020614-0.066278-0.038637-0.13423-0.052734-0.20312s-0.024025-0.13978-0.03125-0.21094c-0.007226-0.071155-0.011719-0.14178-0.011719-0.21484 0-0.073056 0.004493-0.14565 0.011719-0.2168 0.007225-0.071151 0.017153-0.14205 0.03125-0.21094 0.014097-0.06889 0.03212-0.13685 0.052734-0.20312 0.020614-0.066275 0.04549-0.13005 0.072266-0.19336 0.053551-0.12661 0.11729-0.24677 0.19336-0.35938 0.076072-0.1126 0.16401-0.21869 0.25977-0.31445 0.095756-0.09576 0.1999-0.18174 0.3125-0.25781 0.1126-0.076076 0.23276-0.14176 0.35938-0.19531 0.063307-0.026778 0.12903-0.049697 0.19531-0.070313 0.066278-0.020615 0.13423-0.038636 0.20312-0.052734 0.068894-0.014099 0.13783-0.024024 0.20898-0.03125 0.071155-0.007227 0.14373-0.011719 0.2168-0.011719z" fill="#000"/>
 </g>
 <defs>
  <clipPath id="clip0_124_40">
   <rect width="30" height="30" fill="#fff"/>
  </clipPath>
 </defs>
</svg>
