<svg width="14" height="30" viewBox="0 0 14 30" fill="none" xmlns="http://www.w3.org/2000/svg">
<path d="M9.87292 6.15441C8.44612 6.15441 6.96875 5.18547 6.96875 3.56435C6.96875 3.15441 7.02731 2.76843 7.05925 2.67792C7.32012 1.91395 8.03619 1.22717 8.84275 0.950328C9.14355 0.846513 9.46564 0.793274 9.80903 0.793274C10.5943 0.793274 11.3689 1.06745 11.88 1.52531C12.4869 2.04971 12.7851 2.70987 12.7744 3.4978C12.7638 4.31235 12.5482 4.7702 11.8827 5.37979C11.1826 6.02131 10.4026 6.15441 9.87026 6.15441H9.87292Z" fill="#000"/>
<path d="M9.80905 1.5945C10.3947 1.5945 10.983 1.79681 11.3477 2.12422L11.3583 2.13221L11.3689 2.1402C11.7842 2.49956 11.9839 2.94144 11.9785 3.4898C11.9732 4.03815 11.88 4.30169 11.3477 4.79148C10.8366 5.25998 10.2642 5.35847 9.87294 5.35847C9.31127 5.35847 8.75759 5.15883 8.35564 4.81278C7.967 4.47737 7.76735 4.05945 7.76735 3.56699C7.76735 3.29281 7.80196 3.01331 7.82325 2.91482C7.99894 2.40905 8.53665 1.90328 9.11163 1.7063C9.31926 1.63443 9.55883 1.59716 9.81172 1.59716M9.81172 0C9.38847 0 8.97321 0.0638864 8.58723 0.199645C7.54109 0.556344 6.64401 1.42946 6.31127 2.40639C6.23141 2.62467 6.17285 3.14374 6.17285 3.56699C6.17285 5.60337 7.98829 6.95563 9.8756 6.95563C10.7727 6.95563 11.6831 6.65217 12.4284 5.97072C13.2563 5.21207 13.5677 4.54392 13.5784 3.51109C13.589 2.48891 13.187 1.60248 12.4178 0.934339C11.7416 0.327418 10.7647 0 9.81438 0H9.81172Z" fill="#000"/>
<path d="M7.16322 29.1961C6.8358 29.1961 6.5137 29.1721 6.17564 29.1189C4.85 28.9139 3.99285 28.3762 3.48176 27.4259C3.28212 27.0532 3.22622 26.8829 3.19693 26.2067C3.13571 25.0195 3.26881 24.1837 4.30696 20.5528C5.3744 16.7542 5.59001 15.7746 5.59001 14.7232C5.59001 14.2547 5.59001 12.8225 4.33624 12.3061C3.8704 12.1091 3.25284 12.0665 2.81894 12.0665C2.43828 12.0665 2.05497 12.0985 1.70093 12.157C1.91122 12.0745 2.1854 11.9734 2.45425 11.8749C3.73997 11.3931 4.78877 11.0816 5.41433 10.9964C5.6752 10.9618 6.0106 10.9432 6.35931 10.9432C6.82515 10.9432 7.25905 10.9752 7.55452 11.0337C9.21291 11.3398 10.1819 12.346 10.2937 13.874C10.3682 14.9867 10.1313 16.2005 9.19427 19.5093C8.14547 23.2334 7.90057 24.2236 7.90057 25.3842C7.90057 26.5448 8.22001 27.2635 8.85088 27.6894L8.88016 27.7081C9.23686 27.929 9.85443 28.0382 10.7169 28.0382C10.9458 28.0382 11.4117 28.0275 11.8961 27.9583L11.5661 28.0914C9.60687 28.8793 8.33447 29.2014 7.16588 29.2014L7.16322 29.1961Z" fill="#000"/>
<path d="M6.35918 11.7365C6.76912 11.7365 7.15776 11.7657 7.4 11.8137H7.41065L7.42129 11.8163C8.71499 12.0532 9.41242 12.764 9.4976 13.9139C9.56415 14.9148 9.32458 16.118 8.42751 19.2857C7.35475 23.0949 7.10186 24.1145 7.10186 25.3762C7.10186 27.0186 7.74339 27.8598 8.3157 28.2831C7.9031 28.3602 7.52511 28.3949 7.16309 28.3949C6.87826 28.3949 6.59343 28.3736 6.29796 28.3283C4.92174 28.1153 4.44525 27.5297 4.18438 27.0506C4.04596 26.7924 4.01668 26.7391 3.99272 26.1588C3.93682 25.0648 4.05927 24.3168 5.07347 20.7631C6.12227 17.0337 6.3858 15.9343 6.3858 14.7205C6.3858 13.3709 5.97586 12.4099 5.16664 11.8509C5.32901 11.8163 5.44348 11.7977 5.51269 11.787C5.74161 11.7578 6.04241 11.7391 6.35652 11.7391M6.35652 10.142C5.98119 10.142 5.60852 10.1633 5.30506 10.2032C4.62626 10.2964 3.55617 10.6051 2.17728 11.1242C0.798403 11.63 0.763797 11.6539 0.649334 12.0559C0.489618 12.6202 0.372493 13.3443 0.441703 13.3443C0.476309 13.3443 0.798403 13.2405 1.17906 13.102C1.63425 12.9476 2.24916 12.8651 2.81881 12.8651C3.30062 12.8651 3.74783 12.9237 4.03265 13.0461C4.56238 13.2644 4.7913 13.7702 4.7913 14.7258C4.7913 15.6815 4.57302 16.6584 3.53753 20.3372C2.50204 23.9601 2.32901 24.9024 2.39822 26.2467C2.43283 27.0293 2.51269 27.3168 2.77622 27.8092C3.40976 28.9831 4.4905 29.6726 6.05306 29.9148C6.42307 29.9707 6.79042 30 7.16309 30C8.45679 30 9.84365 29.646 11.8614 28.8341L12.7824 28.4667L12.9901 27.6841C13.1045 27.2476 13.1844 26.8669 13.1631 26.8456C13.1631 26.8456 13.1551 26.8429 13.1445 26.8429C13.0646 26.8429 12.7398 26.9281 12.3805 27.0426C11.9519 27.1783 11.313 27.2449 10.7194 27.2449C10.1258 27.2449 9.52955 27.173 9.30062 27.0319C8.90932 26.7684 8.70168 26.2147 8.70168 25.3869C8.70168 24.3753 8.89601 23.5235 9.9661 19.7303C10.9324 16.315 11.1746 15.0506 11.0921 13.8208C10.9537 11.9361 9.71322 10.6238 7.71144 10.2564C7.34676 10.1846 6.85164 10.15 6.36184 10.15L6.35652 10.142Z" fill="#000"/>
</svg>
