<svg width="14" height="31" viewBox="0 0 14 31" fill="none" xmlns="http://www.w3.org/2000/svg">
<path d="M9.70407 1.7018C10.2897 1.7018 10.878 1.9041 11.2427 2.23152L11.2533 2.23951L11.264 2.24749C11.6792 2.60686 11.8789 3.04874 11.8735 3.5971C11.8682 4.14545 11.7751 4.40898 11.2427 4.89878C10.7316 5.36728 10.1593 5.46577 9.76796 5.46577C9.20629 5.46577 8.65261 5.26613 8.25066 4.92008C7.86201 4.58467 7.66237 4.16675 7.66237 3.67429C7.66237 3.40011 7.69697 3.12061 7.71827 3.02212C7.89396 2.51635 8.43167 2.01058 9.00664 1.8136C9.21428 1.74173 9.45385 1.70446 9.70673 1.70446M9.70673 0.1073C9.28349 0.1073 8.86822 0.171186 8.48224 0.306945C7.4361 0.663644 6.53903 1.53676 6.20629 2.51369C6.12643 2.73197 6.06787 3.25104 6.06787 3.67429C6.06787 5.71067 7.88331 7.06293 9.77062 7.06293C10.6677 7.06293 11.5781 6.75947 12.3234 6.07802C13.1513 5.31937 13.4627 4.65122 13.4734 3.61839C13.484 2.59621 13.0821 1.70978 12.3128 1.04164C11.6366 0.434718 10.6597 0.1073 9.70939 0.1073H9.70673Z" fill="#000"/>
<path d="M6.2542 11.8438C6.66414 11.8438 7.05278 11.873 7.29502 11.921H7.30567L7.31631 11.9236C8.61001 12.1605 9.30744 12.8713 9.39262 14.0212C9.45917 15.0221 9.21959 16.2253 8.32252 19.393C7.24976 23.2022 6.99688 24.2218 6.99688 25.4835C6.99688 27.1259 7.63841 27.9671 8.21072 28.3903C7.79812 28.4675 7.42013 28.5021 7.0581 28.5021C6.77328 28.5021 6.48845 28.4808 6.19298 28.4356C4.81676 28.2226 4.34027 27.637 4.0794 27.1579C3.94098 26.8997 3.9117 26.8464 3.88774 26.2661C3.83184 25.1721 3.95429 24.4241 4.96849 20.8704C6.01729 17.141 6.28082 16.0416 6.28082 14.8278C6.28082 13.4782 5.87088 12.5172 5.06166 11.9582C5.22403 11.9236 5.3385 11.905 5.40771 11.8943C5.63663 11.8651 5.93743 11.8464 6.25154 11.8464M6.25154 10.2493C5.87621 10.2493 5.50354 10.2706 5.20008 10.3105C4.52128 10.4037 3.45119 10.7124 2.0723 11.2315C0.693422 11.7373 0.658817 11.7612 0.544354 12.1632C0.384638 12.7275 0.267513 13.4516 0.336723 13.4516C0.371328 13.4516 0.693422 13.3478 1.07408 13.2093C1.52927 13.0549 2.14418 12.9724 2.71383 12.9724C3.19564 12.9724 3.64284 13.031 3.92767 13.1534C4.4574 13.3717 4.68632 13.8775 4.68632 14.8331C4.68632 15.7888 4.46804 16.7657 3.43255 20.4445C2.39706 24.0674 2.22403 25.0097 2.29324 26.354C2.32785 27.1366 2.40771 27.4241 2.67124 27.9165C3.30478 29.0904 4.38552 29.7799 5.94808 30.0221C6.31809 30.078 6.68543 30.1073 7.0581 30.1073C8.3518 30.1073 9.73867 29.7533 11.7564 28.9414L12.6774 28.574L12.8851 27.7914C12.9995 27.3549 13.0794 26.9742 13.0581 26.9529C13.0581 26.9529 13.0501 26.9502 13.0395 26.9502C12.9596 26.9502 12.6349 27.0354 12.2755 27.1499C11.8469 27.2856 11.2081 27.3522 10.6144 27.3522C10.0208 27.3522 9.42456 27.2803 9.19564 27.1392C8.80433 26.8757 8.5967 26.322 8.5967 25.4942C8.5967 24.4826 8.79102 23.6308 9.86112 19.8376C10.8274 16.4223 11.0696 15.1579 10.9871 13.9281C10.8487 12.0434 9.60824 10.7311 7.60646 10.3637C7.24178 10.2919 6.74666 10.2573 6.25686 10.2573L6.25154 10.2493Z" fill="#000"/>
</svg>
