<svg width="30" height="30" viewBox="0 0 30 30" fill="none" xmlns="http://www.w3.org/2000/svg">
<path d="M21.1486 24.2991V1.04355H1V24.8807C1 27.1337 2.82597 28.9571 5.07634 28.9571C7.32934 28.9571 9.15269 27.1311 9.15269 24.8807V24.2991H21.1486V24.2991Z" stroke="white" stroke-width="1.5" stroke-linecap="round" stroke-linejoin="round"/>
<path d="M21.1486 24.2992H29.0001V24.8808C29.0001 27.1337 27.1741 28.9571 24.9237 28.9571H5.07642" stroke="white" stroke-width="1.5" stroke-linecap="round" stroke-linejoin="round"/>
<path fill-rule="evenodd" clip-rule="evenodd" d="M21.1486 24.2992V1.04355H1V24.8807C1 27.1337 2.82597 28.9571 5.07634 28.9571C7.32934 28.9571 9.15269 27.1311 9.15269 24.8807V24.2992H21.1486ZM6.19795 9.42676V11.6114H8.87899C9.09357 11.6114 9.27196 11.6786 9.41674 11.8156C9.56153 11.9527 9.6365 12.1285 9.6365 12.3431C9.6365 12.524 9.56153 12.6869 9.41674 12.8265C9.27196 12.9687 9.09357 13.0385 8.87899 13.0385H6.19795V15.929C6.19795 16.1436 6.12039 16.3245 5.96785 16.4693C5.81532 16.6141 5.63434 16.6865 5.42751 16.6865C5.19741 16.6865 5.00868 16.6141 4.8639 16.4693C4.71912 16.3245 4.64673 16.1436 4.64673 15.929V8.75715C4.64673 8.54256 4.71912 8.36159 4.8639 8.21681C5.00868 8.07202 5.18707 7.99963 5.40424 7.99963H9.43743C9.65201 7.99963 9.8304 8.06685 9.97519 8.20388C10.12 8.3409 10.1924 8.51671 10.1924 8.7313C10.1924 8.91486 10.12 9.07515 9.97519 9.21476C9.8304 9.35696 9.65201 9.42676 9.43743 9.42676H6.19795ZM14.983 8.4469L18.0363 15.717C18.0777 15.8256 18.0984 15.9264 18.0984 16.0169C18.0984 16.2392 18.026 16.4176 17.8812 16.5495C17.7364 16.6813 17.5761 16.7485 17.4029 16.7485C17.2556 16.7485 17.1211 16.702 16.9996 16.6115C16.8807 16.521 16.7876 16.3969 16.7204 16.2392L16.0766 14.7371H12.377L11.7332 16.2521C11.6737 16.4099 11.5858 16.5314 11.4643 16.6193C11.3454 16.7046 11.2161 16.7485 11.0739 16.7485C10.8516 16.7485 10.6861 16.6865 10.5775 16.5624C10.4715 16.4383 10.4172 16.2858 10.4172 16.1022C10.4172 16.0298 10.4302 15.9497 10.4534 15.8669L13.543 8.4469C13.6102 8.28143 13.711 8.15217 13.848 8.06168C13.9851 7.97119 14.1324 7.93241 14.2875 7.95051C14.4375 7.95051 14.5771 7.99446 14.7038 8.07978C14.8331 8.16768 14.9261 8.28919 14.983 8.4469ZM14.2177 10.4066L12.9845 13.31H15.4639L14.2177 10.4066Z" fill="white"/>
</svg>
