<svg width="30" height="30" viewBox="0 0 30 30" fill="none" xmlns="http://www.w3.org/2000/svg">
<path d="M21.0436 24.4061V1.15051H0.89502V24.9877C0.89502 27.2407 2.72099 29.064 4.97136 29.064C7.22436 29.064 9.04771 27.2381 9.04771 24.9877V24.4061H21.0436V24.4061Z" stroke="white" stroke-width="1.5" stroke-linecap="round" stroke-linejoin="round"/>
<path d="M9.34118 8.37321C9.55862 8.48324 9.68699 8.65352 9.72367 8.8893C9.76034 9.12508 9.70009 9.33728 9.54028 9.53114C9.43025 9.68309 9.29141 9.76692 9.1185 9.78264C8.9456 9.79836 8.77269 9.76692 8.59717 9.68309C8.39545 9.5914 8.18325 9.52066 7.96319 9.46827C7.74051 9.41849 7.50735 9.3923 7.26633 9.3923C6.81312 9.3923 6.40967 9.46303 6.05338 9.60712C5.6971 9.74858 5.39321 9.95292 5.14171 10.2175C4.89021 10.4821 4.69897 10.7939 4.5706 11.1554C4.43961 11.5169 4.37674 11.9151 4.37674 12.35C4.37674 12.8609 4.45009 13.3062 4.5968 13.6835C4.74351 14.0607 4.94785 14.3751 5.2072 14.6266C5.46656 14.8781 5.77307 15.0641 6.12412 15.1872C6.47517 15.3103 6.85765 15.3706 7.26895 15.3706C7.49425 15.3706 7.72217 15.3496 7.94747 15.3077C8.17277 15.2658 8.39283 15.1898 8.60241 15.0824C8.77793 14.9986 8.95346 14.9698 9.12374 14.9933C9.29665 15.0195 9.44073 15.106 9.55862 15.2579C9.72629 15.4675 9.78654 15.6823 9.74201 15.905C9.69485 16.1277 9.5691 16.2875 9.35952 16.3897C9.14208 16.4997 8.91678 16.5888 8.68624 16.6595C8.4557 16.7302 8.22255 16.7853 7.98939 16.8219C7.75361 16.8586 7.51521 16.8796 7.27157 16.8796C6.66903 16.8796 6.0953 16.7826 5.55563 16.5914C5.01596 16.3975 4.5313 16.1146 4.10952 15.7374C3.68512 15.3601 3.35241 14.8886 3.10878 14.3227C2.86514 13.7568 2.74463 13.1019 2.74463 12.3552C2.74463 11.7108 2.85466 11.1135 3.07734 10.5686C3.30002 10.0237 3.61439 9.5521 4.02045 9.1539C4.42651 8.75569 4.90593 8.44656 5.46132 8.22388C6.01409 8.0012 6.61925 7.89117 7.27157 7.89117C7.64096 7.89117 7.99987 7.93309 8.35353 8.01692C8.70458 8.10075 9.03729 8.22126 9.34642 8.38107L9.34118 8.37321Z" fill="white"/>
<path d="M17.7401 7.94617C17.9418 7.94617 18.1042 8.01428 18.23 8.14789C18.3557 8.2815 18.4186 8.44916 18.4186 8.65088V15.981C18.4186 16.1984 18.3453 16.3818 18.1985 16.5285C18.0518 16.6752 17.8685 16.7486 17.651 16.7486C17.541 16.7486 17.431 16.7302 17.3183 16.6909C17.2057 16.6542 17.1192 16.6019 17.0616 16.5337L12.4482 10.6786V16.0438C12.4456 16.2456 12.3801 16.4132 12.2517 16.5468C12.1233 16.6804 11.953 16.7486 11.7435 16.7486C11.5339 16.7486 11.3793 16.6804 11.2536 16.5468C11.1278 16.4132 11.0649 16.2456 11.0649 16.0438V8.71376C11.0649 8.49632 11.1383 8.31293 11.285 8.16623C11.4317 8.01952 11.6125 7.94617 11.8325 7.94617C11.9504 7.94617 12.0709 7.96974 12.1967 8.01428C12.3224 8.06144 12.4141 8.12955 12.4744 8.22124L17.0511 14.0607V8.65088C17.0511 8.44916 17.114 8.2815 17.2397 8.14789C17.3655 8.01428 17.5331 7.94617 17.7427 7.94617H17.7401Z" fill="white"/>
<path d="M21.0437 24.4061H28.8951V24.9877C28.8951 27.2407 27.0691 29.0641 24.8187 29.0641H4.97144" stroke="white" stroke-width="1.5" stroke-linecap="round" stroke-linejoin="round"/>
</svg>
