<svg width="30" height="30" viewBox="0 0 30 30" fill="none" xmlns="http://www.w3.org/2000/svg">
<path fill-rule="evenodd" clip-rule="evenodd" d="M21.1486 24.2992V1.04355H1V24.8807C1 27.1337 2.82597 28.9571 5.07634 28.9571C7.32934 28.9571 9.15269 27.1311 9.15269 24.8807V24.2992H21.1486ZM17.8464 7.83923C18.0475 7.83952 18.2095 7.90763 18.335 8.04096C18.4607 8.17456 18.5236 8.34223 18.5236 8.54395V15.874C18.5236 16.0915 18.4502 16.2749 18.3035 16.4216C18.1568 16.5683 17.9734 16.6416 17.756 16.6416C17.646 16.6416 17.5359 16.6233 17.4233 16.584C17.3106 16.5473 17.2242 16.4949 17.1665 16.4268L12.5532 10.5716V15.9369C12.5505 16.1386 12.485 16.3063 12.3567 16.4399C12.2283 16.5735 12.058 16.6416 11.8484 16.6416C11.6389 16.6416 11.4843 16.5735 11.3585 16.4399C11.2328 16.3063 11.1699 16.1386 11.1699 15.9369V8.60682C11.1699 8.38938 11.2433 8.206 11.39 8.05929C11.5367 7.91259 11.7175 7.83923 11.9375 7.83923C12.0554 7.83923 12.1759 7.86281 12.3017 7.90735C12.4274 7.9545 12.5191 8.02262 12.5794 8.11431L17.1561 13.9538V8.54395C17.1561 8.34223 17.2189 8.17456 17.3447 8.04096C17.4702 7.90763 17.6374 7.83952 17.8464 7.83923ZM17.8464 7.83923L17.8451 7.83923H17.8477L17.8464 7.83923ZM9.82865 8.78234C9.79197 8.54656 9.6636 8.37628 9.44616 8.26625L9.4514 8.27411C9.14227 8.1143 8.80956 7.99379 8.45851 7.90996C8.10485 7.82613 7.74594 7.78421 7.37655 7.78421C6.72423 7.78421 6.11907 7.89424 5.5663 8.11692C5.01091 8.3396 4.5315 8.64873 4.12543 9.04693C3.71937 9.44514 3.405 9.91669 3.18232 10.4616C2.95964 11.0065 2.84961 11.6038 2.84961 12.2483C2.84961 12.9949 2.97012 13.6499 3.21376 14.2157C3.45739 14.7816 3.7901 15.2531 4.2145 15.6304C4.63629 16.0076 5.12094 16.2906 5.66061 16.4844C6.20028 16.6757 6.77401 16.7726 7.37655 16.7726C7.62019 16.7726 7.85859 16.7516 8.09437 16.715C8.32753 16.6783 8.56068 16.6233 8.79122 16.5525C9.02176 16.4818 9.24706 16.3927 9.4645 16.2827C9.67408 16.1805 9.79983 16.0207 9.84699 15.7981C9.89152 15.5754 9.83127 15.3606 9.6636 15.151C9.54571 14.999 9.40163 14.9126 9.22872 14.8864C9.05844 14.8628 8.88292 14.8916 8.70739 14.9754C8.49781 15.0829 8.27775 15.1588 8.05245 15.2007C7.82715 15.2427 7.59923 15.2636 7.37393 15.2636C6.96263 15.2636 6.58015 15.2034 6.2291 15.0802C5.87805 14.9571 5.57154 14.7711 5.31218 14.5196C5.05283 14.2681 4.84849 13.9537 4.70178 13.5765C4.55507 13.1993 4.48172 12.7539 4.48172 12.243C4.48172 11.8082 4.54459 11.41 4.67558 11.0484C4.80395 10.6869 4.99519 10.3752 5.24669 10.1106C5.49819 9.84596 5.80208 9.64162 6.15837 9.50015C6.51465 9.35607 6.9181 9.28533 7.37131 9.28533C7.61233 9.28533 7.84549 9.31153 8.06817 9.36131C8.28823 9.4137 8.50043 9.48443 8.70215 9.57613C8.87768 9.65996 9.05058 9.69139 9.22348 9.67568C9.39639 9.65996 9.53524 9.57613 9.64527 9.42418C9.80507 9.23032 9.86532 9.01812 9.82865 8.78234Z" fill="#000"/>
<path d="M21.1486 24.2991V1.04355H1V24.8807C1 27.1337 2.82597 28.9571 5.07634 28.9571C7.32934 28.9571 9.15269 27.1311 9.15269 24.8807V24.2991H21.1486V24.2991Z" stroke="#000" stroke-width="1.5" stroke-linecap="round" stroke-linejoin="round"/>
<path d="M21.1486 24.2992H29.0001V24.8808C29.0001 27.1337 27.1741 28.9571 24.9237 28.9571H5.07642" stroke="#000" stroke-width="1.5" stroke-linecap="round" stroke-linejoin="round"/>
</svg>
