<svg width="30" height="30" viewBox="0 0 30 30" fill="none" xmlns="http://www.w3.org/2000/svg">
<g clip-path="url(#clip0_124_20)">
<path d="M4.97132 5.31794C6.23334 5.31794 7.46625 5.32059 8.30495 5.32324C8.3949 5.32324 8.48221 5.36557 8.54042 5.437C9.05898 6.07727 9.78656 6.97682 10.321 7.62238C11.1174 8.58807 12.2921 9.14103 13.5435 9.14103H26.2721C27.2669 9.14103 28.0765 9.95327 28.0765 10.9534V22.1237C28.0765 23.1237 27.2669 23.936 26.2721 23.936H3.79132C2.79653 23.936 1.98693 23.1237 1.98693 22.1237V7.13292C1.98693 6.13548 2.79388 5.32059 3.78603 5.32059C4.17231 5.32059 4.56917 5.32059 4.96603 5.32059M4.96074 3.38391C4.56652 3.38391 4.16966 3.38391 3.78074 3.38391C1.71707 3.38656 0.0476074 5.0666 0.0476074 7.13292V22.1263C0.0476074 24.1979 1.72236 25.8753 3.78868 25.8753H26.2695C28.3358 25.8753 30.0106 24.1953 30.0106 22.1263V10.956C30.0106 8.8844 28.3358 7.207 26.2695 7.207H13.5409C12.8715 7.207 12.2392 6.90803 11.8132 6.39211C11.2867 5.75449 10.5671 4.86552 10.0458 4.22261C9.62253 3.69611 8.9849 3.39185 8.31024 3.3892C7.4689 3.38656 6.23069 3.38391 4.96339 3.38391H4.96074Z" fill="white"/>
</g>
<defs>
<clipPath id="clip0_124_20">
<rect width="30" height="30" fill="white"/>
</clipPath>
</defs>
</svg>
