<?xml version="1.0" encoding="UTF-8"?>
<svg width="20" height="21" fill="none" version="1.1" viewBox="0 0 20 21" xmlns="http://www.w3.org/2000/svg">
 <g clip-path="url(#clip0_118_97)" fill="#fff">
  <path d="m7.3424 1.9111c3.2644 0 5.9219 2.6576 5.9219 5.9219 0 3.2644-2.6575 5.9219-5.9219 5.9219-3.2644 0-5.9219-2.6575-5.9219-5.9219 0-3.2644 2.6552-5.9219 5.9219-5.9219zm0-1.4111c-4.0499 0-7.333 3.2832-7.333 7.333 0 4.0499 3.2832 7.333 7.333 7.333 4.0499 0 7.333-3.2831 7.333-7.333 0-4.0499-3.2831-7.333-7.333-7.333z"/>
  <path d="m13.447 12.957a1 1 0 0 0-0.70703 0.29297 1 1 0 0 0 0 1.4141l5.8398 5.8398a1 1 0 0 0 1.4141 0 1 1 0 0 0 0-1.4141l-5.8398-5.8398a1 1 0 0 0-0.70703-0.29297z" color="#000000" stroke-linecap="round" stroke-miterlimit="10" style="-inkscape-stroke:none"/>
 </g>
 <defs>
  <clipPath id="clip0_118_97">
   <rect transform="translate(0 .5)" width="20" height="20" fill="#fff"/>
  </clipPath>
 </defs>
</svg>
