<svg width="30" height="30" viewBox="0 0 30 30" fill="none" xmlns="http://www.w3.org/2000/svg">
<g clip-path="url(#clip0_124_59)">
<path d="M8.88445 8.08272C10.8529 8.08272 12.4535 9.68339 12.4535 11.6518C12.4535 13.6202 10.8529 15.2209 8.88445 15.2209C6.91602 15.2209 5.31535 13.6202 5.31535 11.6518C5.31535 9.68339 6.91602 8.08272 8.88445 8.08272ZM8.88445 6.22806C5.88948 6.22806 3.46069 8.65684 3.46069 11.6518C3.46069 14.6468 5.88948 17.0756 8.88445 17.0756C11.8794 17.0756 14.3082 14.6468 14.3082 11.6518C14.3082 8.65684 11.8794 6.22806 8.88445 6.22806Z" fill="#000"/>
<path d="M8.94534 19.7425C12.8319 19.7425 15.9936 22.9041 15.9936 26.7907C15.9936 27.513 15.4036 28.103 14.6813 28.103H3.20674C2.48446 28.103 1.89446 27.513 1.89446 26.7907C1.89446 22.9041 5.05611 19.7425 8.9427 19.7425M8.9427 17.8878C4.02692 17.8878 0.0397949 21.8749 0.0397949 26.7934C0.0397949 28.5422 1.45791 29.9603 3.20674 29.9603H14.6813C16.4301 29.9603 17.8482 28.5422 17.8482 26.7934C17.8482 21.8749 13.8611 17.8878 8.9427 17.8878Z" fill="#000"/>
<path d="M22.404 1.57421C24.0655 1.57421 25.4148 2.92618 25.4148 4.5877C25.4148 6.24923 24.0629 7.6012 22.404 7.6012C20.7451 7.6012 19.3905 6.24923 19.3905 4.5877C19.3905 2.92618 20.7425 1.57421 22.404 1.57421ZM22.404 0.00793457C19.8747 0.00793457 17.8242 2.05838 17.8242 4.5877C17.8242 7.11703 19.8747 9.16747 22.404 9.16747C24.9333 9.16747 26.9838 7.11703 26.9838 4.5877C26.9838 2.05838 24.9333 0.00793457 22.404 0.00793457Z" fill="#000"/>
<path d="M22.4542 11.419C25.735 11.419 28.4045 14.0885 28.4045 17.3693C28.4045 17.9804 27.9071 18.4778 27.2959 18.4778H17.6099C16.9987 18.4778 16.5013 17.9804 16.5013 17.3693C16.5013 14.0885 19.1709 11.419 22.4516 11.419M22.4516 9.85272C18.3004 9.85272 14.9351 13.2181 14.9351 17.3693C14.9351 18.8456 16.1336 20.0441 17.6099 20.0441H27.2959C28.7723 20.0441 29.9708 18.8456 29.9708 17.3693C29.9708 13.2181 26.6054 9.85272 22.4542 9.85272H22.4516Z" fill="#000"/>
</g>
<defs>
<clipPath id="clip0_124_59">
<rect width="30" height="30" fill="#000"/>
</clipPath>
</defs>
</svg>
