<svg width="30" height="30" viewBox="0 0 30 30" fill="none" xmlns="http://www.w3.org/2000/svg">
<g clip-path="url(#clip0_125_855)">
<path d="M8.88445 17.0756C11.8799 17.0756 14.3082 14.6473 14.3082 11.6518C14.3082 8.65636 11.8799 6.22806 8.88445 6.22806C5.88899 6.22806 3.46069 8.65636 3.46069 11.6518C3.46069 14.6473 5.88899 17.0756 8.88445 17.0756Z" fill="white"/>
<path d="M14.6813 29.9603H3.20674C1.45791 29.9603 0.0397949 28.5422 0.0397949 26.7934C0.0397949 21.8749 4.02692 17.8878 8.94534 17.8878C13.8638 17.8878 17.8509 21.8749 17.8509 26.7934C17.8509 28.5422 16.4328 29.9603 14.6839 29.9603H14.6813Z" fill="white"/>
<path d="M22.404 9.16747C24.9333 9.16747 26.9838 7.11704 26.9838 4.5877C26.9838 2.05837 24.9333 0.00793457 22.404 0.00793457C19.8747 0.00793457 17.8242 2.05837 17.8242 4.5877C17.8242 7.11704 19.8747 9.16747 22.404 9.16747Z" fill="white"/>
<path d="M27.2959 20.0441H17.6099C16.1336 20.0441 14.9351 18.8456 14.9351 17.3693C14.9351 13.2181 18.3004 9.85272 22.4516 9.85272C26.6028 9.85272 29.9681 13.2181 29.9681 17.3693C29.9681 18.8456 28.7696 20.0441 27.2933 20.0441H27.2959Z" fill="white"/>
</g>
<defs>
<clipPath id="clip0_125_855">
<rect width="30" height="30" fill="white"/>
</clipPath>
</defs>
</svg>
